<svg id="Layer_1" data-name="Layer 1" xmlns="http://www.w3.org/2000/svg" viewBox="0 0 1380.67 1525.1"><defs><style>.cls-1{fill:#16a34a;}.cls-2{fill:#15803d;}</style></defs><path class="cls-1" d="M632.89,140.82V0H697V1525.1H633.73V1379.39c-30,17.31-57.29,29-79.71,46.8-40.13,31.84-75,31.47-116.45.28-38.71-29.11-83-50.89-125.26-75.18-11.86-6.82-20-14.33-17.06-28.93,8.49-42.53-8.31-68.7-48.48-85.42-29-12.07-55.75-30.19-82.28-47.49-7.32-4.77-10.29-16.23-15.18-24.66-.33-.58,0-1.53-.05-2.3-.81-29.25,7.64-63.73-5.1-86.23-12.23-21.61-46.49-30.68-70.93-45.47-23.1-14-54.74-23.23-66.59-43.79s-4.25-52.48-4.3-79.43c-.21-117.64.36-235.27-.57-352.9-.15-19.43,4.89-30.92,22.78-40.06,37.18-19,72.88-40.86,109.62-60.75,11.57-6.26,16.37-13.87,16.3-27.25-.15-25.51.43-51.17,3.37-76.46,1-8.81,7.94-20,15.49-24.46,38-22.38,76.79-43.37,115.89-63.76,12.42-6.47,20.85-13.78,17.78-28.36-10.2-48.46,13-73.58,56-92C400.72,123.74,439.72,99.16,479,76c15.87-9.34,28.11-10,44.09.14C557.42,98,593.12,117.59,632.89,140.82Zm-1.55,431.92C599.71,591,571.44,606.66,544,623.68c-4.51,2.8-6.88,11.26-7.68,17.44-4.12,31.55-22.18,52.9-50.78,58.62-25.41,5.08-52.4-7-65.72-29.32-14.28-24-12-53,5.78-73.65C444.36,575.05,472.73,569.92,502,581c7.38,2.79,18.34,3.09,25-.45,30.77-16.28,61.11-33.52,90.41-52.28,7.4-4.73,14.69-16.27,14.78-24.77q1.56-139.32,0-278.66c-.09-8.52-7.22-20.14-14.58-24.85-33.87-21.67-68.7-41.93-103.93-61.34-6.65-3.66-18.3-4.33-24.92-1-34.5,17.45-68.61,35.86-101.68,55.87-7.23,4.38-13.27,16.49-13.68,25.33-1.58,34-.23,68.1-.86,102.16-.28,15.38,2.22,26.37,16.69,36.78,30.72,22.1,32.45,64.95,6.71,91.8-25.33,26.43-65.65,26.46-91,.06s-24-70.34,6.75-91.9c21-14.68,16.7-30.5,13.35-51.85-25.34,13.79-47.22,29.28-71.53,38.08-37.51,13.59-50,38-46,75.93,1.37,12.84,3.65,21.13,15.57,27.72,36.56,20.22,71.87,42.79,109,61.86,9.7,5,26.31,4.69,36.15-.28,34.48-17.43,67.85-37.23,100.53-57.88,7.33-4.62,13.95-16.19,14.36-24.88,1.65-34.76,1.62-69.68.14-104.45-.38-9-6.18-20.17-13.13-26.06-23.26-19.68-33.17-45.87-24.28-72,9-26.56,31.8-43.16,59.58-43.43a62.5,62.5,0,0,1,60.14,42.68c8.81,26.07-1.17,53.36-23.63,72.46-7,5.94-13.23,16.94-13.52,25.83-1.41,43.31.21,86.72-1.42,130-.35,9.34-7.48,21.67-15.31,26.88-25.07,16.69-50.66,33.85-78.4,45-48,19.31-70.42,50.32-59.64,102.36.46,2.23.88,5.06-.08,6.88-4.24,8-7.07,18.85-13.89,23.17-29.37,18.65-58.86,37.82-90.42,52.15-38,17.25-59.51,40.33-50.32,84.71,2.77,13.36-1.13,28,1,41.63,1.44,9.15,6,20.11,12.86,25.71,32.08,26.18,37.14,66.72,10.29,95.68-24.86,26.8-68.45,26.35-93-1-24.73-27.47-19.11-68.86,11.1-94.3,6.91-5.82,12.58-17,13-26,1.49-34,1.3-68.12.23-102.15-.48-15.08,4.07-23.77,17.78-31.06,32.78-17.43,63.29-39.56,97-54.62,32.22-14.38,42.57-35.44,38.26-68.65-1.6-12.34-3-21.33-15.14-28-34-18.53-66.82-39.07-101-57.22-7.32-3.89-20-4.51-27.15-.77-37.68,19.75-74.5,41.14-111.23,62.62-5.3,3.1-11.85,9.63-12.09,14.83-1.23,26.55-.57,53.19-.57,84.9,24.79-14.17,44.41-26.09,64.71-36.73,11.48-6,15.9-13.43,17.06-26.9,3.13-36.51,36.52-61.26,72-55.8s58.63,39.28,51.84,75.34c-6.41,34-41.88,60-74.85,47.06-27.45-10.83-45.12-1.25-65.53,11.27C109,678.67,91.14,686.73,75.63,698.09c-7.33,5.36-14.78,16.27-14.93,24.79q-1.8,108-.12,216c.13,8.73,6.74,20.8,14.07,25.39q53.1,33.21,108.61,62.48c7.58,4,21,3.52,28.77-.55,32.89-17.22,64.3-37.23,97-54.82,14-7.53,20-16.4,19.28-32.65-1.32-27.81-.76-55.73-.23-83.59.38-19.55-.29-35.13-20.49-49-28.56-19.57-29.17-61.21-6.68-86.66,23.71-26.83,63.21-29.53,89.39-6.12,25.9,23.17,32.14,65.91,5.77,86.37-25.29,19.64-23.37,42.08-23.27,67.06.09,22.45.91,45-.3,67.33-.9,16.61,4.17,26.75,19.51,35,38.81,20.92,76,44.9,114.93,65.52,16.37,8.66,21,19,20.53,36.54-1.19,41.77-1.25,83.63.22,125.38.34,9.69,6.26,22,13.68,28.15,30.2,25.21,35.76,66.76,10.64,94.33s-67,28.12-92.74.93c-26.79-28.3-21.64-69.68,10.21-95.75,7-5.74,12.67-17.16,13.05-26.21,1.43-34.77,1.43-69.69-.27-104.45-.43-8.77-7-20.47-14.37-25.11-33.36-21-68.35-39.47-102-60-12.49-7.63-22.15-6.64-34,.63-27.71,17-54.73,36.26-84.59,48.21-38.55,15.43-46.86,42.2-40.81,78.35.93,5.56,2.95,13.19,7,15.64,36.2,21.81,73,42.67,111.74,65.07,3.09-23.22,6.79-41.27-15.12-55.4-9.76-6.3-16.77-20.5-20.07-32.48-8.48-30.76,9.25-62.25,38.48-73.07,29.85-11.06,62.83,1.26,77.7,29s8.18,62.3-18.55,80.45c-12,8.14-15.93,16.28-15.6,30.05.85,35.59-.84,71.27.95,106.79.47,9.33,7.74,21.52,15.64,26.72,30.33,20,61.79,38.37,93.77,55.63,7,3.8,19.68,3.78,26.73,0,37.4-20.27,74.15-41.82,110.32-64.22,6.4-4,12.74-14,12.81-21.33q1.31-127.73,0-255.46c-.07-7.36-6.23-17.41-12.59-21.47-26.72-17-53.2-35.81-82.37-47.41-46-18.29-63.07-48.78-54.37-96.27,3-16.4-3.12-27.7-17.64-38.64-33.41-25.18-30.14-76.29,4.15-99.44,28.74-19.4,66.76-12.82,86.7,15S570.41,820.57,543,841.7c-16.17,12.45-24.67,66.65-9.92,76.32,30.71,20.12,63.28,37.4,98.28,57.7ZM501.6,643.28V632.66c-9.68-6.49-19.63-18.34-29-17.87-8.11.42-21.36,14.63-21.55,23-.17,8,13.25,22.24,21.38,22.75C481.79,661.09,491.86,649.56,501.6,643.28Zm31.6,152.39c-.13-3.65-.27-7.31-.4-11-10-5.86-20.59-17.06-29.77-16-8.32,1-21.29,15.64-20.85,23.64.47,8.27,14.41,21.77,22.81,22C514.19,814.67,523.78,802.45,533.2,795.67Zm.31-545.76c.17-3.4.33-6.8.5-10.2-8.65-7-16.43-17.85-26.13-20-14.66-3.21-27.32,7.64-25.42,22.24,1.21,9.36,13,23.3,21.2,24.23C512.89,267.23,523.5,255.87,533.51,249.91ZM378.39,410.56q-.17-5.19-.35-10.36c-9.85-6.14-20.2-17.66-29.4-16.81-8.15.76-19.84,14.51-21.35,23.91-2.37,14.81,10.16,25.49,24.78,22.59C361.74,428,369.68,417.31,378.39,410.56ZM232.56,601.24q-.27-5.24-.52-10.48c-9.94-5.77-19.46-15.25-29.91-16.42-14-1.56-22.28,9.56-21.57,24.08.78,15.85,11.29,25.44,25.85,22.34C216.07,618.7,223.91,608.05,232.56,601.24Zm-7.64,316.14q-.18-5.4-.34-10.82c-9.1-6-17.71-16-27.42-17.23-14.85-1.91-26.58,9.49-23.2,24.16,2.12,9.19,14.63,21.87,22.89,22.18C206,936,215.54,924,224.92,917.38ZM378.81,1119l-.18-10.57c-9.13-6-17.7-15.76-27.53-17.27-15.1-2.33-26.58,9.07-23.37,23.68,2,9.1,14.51,21.76,22.7,22.06C359.66,1137.28,369.33,1125.53,378.81,1119ZM343.43,788.38h11.05c6.21-9.7,17.69-19.77,17-29-.58-8.15-14.64-21.25-22.79-21.28-8,0-22,13.31-22.47,21.45C325.68,768.78,337.18,778.74,343.43,788.38ZM532.87,1283c.11-3.33.22-6.65.32-10-8.71-6.75-16.63-17.31-26.34-19.36-14.74-3.1-25.55,7.49-25.92,22.51-.35,14.72,8.86,26.49,24.37,23.93C515.17,1298.47,523.73,1289,532.87,1283Z"/><path class="cls-2" d="M1093.89,847c45.35,0,85.2.61,125-.57,6.94-.21,15-6.69,20.26-12.39,21.63-23.39,55.61-28,76.64-9.34,20.72,18.37,23.49,51,6.19,73-18.74,23.82-48.92,25-76.31,4.93-8.33-6.1-20.07-10.55-30.28-10.61-123.47-.67-246.94.1-370.4-.75-22.58-.16-29.92,6.13-29.28,29.47,1.52,55.44.28,55.53,55.3,55.55,46.08,0,92.17.23,138.25-.31,21.17-.25,33.69,7.18,38.87,29.42,2.46,10.57,12.76,19.51,20.12,28.69,16.63,20.74,33.64,41.17,50.61,61.88-30.6,20.81-42.94,19-61.26-6.42-8.63-12-17.67-23.76-25.2-36.42-13.17-22.15-33-26.89-56.65-35.39-35.88-12.89-63.82-17.59-97.57,1.55-8.88,5-26.65-5.71-40.38-9.07-17.13-4.2-34.3-8.25-54.39-13.06-3.43-30.93-10.56-66.33-10.76-101.77-1.12-193.89-.65-387.8-.33-581.7,0-17.93-1.81-32.52-17-46-19.88-17.68-18.43-48.71-.87-68.33s50-23,71.14-7.07c21.66,16.27,31.39,48.53,12.67,66.39-34.27,32.68-17.14,70.84-22.85,109.85,11.92.92,21.11,2.19,30.32,2.24,53,.26,106.1,1.09,159.1-.4,11-.31,24.18-7.18,32.11-15.22,22.68-23,51.22-27.48,74.27-8.7,22.1,18,26.41,50.48,9.58,72.26-18.13,23.48-49.44,22.23-77.09,9-24.72-11.81-55-11.93-86.59-17.92v87.61c13.37.88,24.45,2.23,35.53,2.24,71.3.05,142.62.58,213.89-1,12.89-.29,27.61-7.11,38-15.35,22.66-18,56.34-18.78,75.49,1.42,18.34,19.36,17.73,54.47-1.29,73.58-20.33,20.42-51.72,18.69-75-1-9.44-8-23.68-14.29-35.83-14.47-85.2-1.24-170.42-.69-255.63-.68-39.35,0-40.51-1.24-40.31-41.7.13-26.8,0-53.61,0-82.8H816.18v80.42c0,50.43.48,100.87-.3,151.29-.25,16.61,5.13,23.62,22.26,23.29,37.37-.72,74.78.49,112.12-.79,8.08-.28,17.5-6.12,23.57-12.15,25.57-25.38,54.53-27.8,78-5.12a51.73,51.73,0,0,1,.09,74.47c-22.84,22.19-54.12,19.84-78.12-5.36-4.46-4.69-10.64-10.87-16.12-11-45.93-.88-91.87-.5-139.64-.5v135c57.8,0,115.08-2.66,172,.91,40,2.51,63.88-8,77.35-48,12.12-35.94,32.35-69.08,47.27-104.19,8.27-19.47,19.7-28.58,41.52-27.15,25.11,1.65,50.41.52,75.63.44,24.66-.08,48,2.6,68.4-20.43,16.36-18.47,50.16-10.94,67.58,8.5s17.21,49.09-.26,69-50,26.7-67.47,7.73c-19.64-21.29-42.09-17.66-65.6-21.45-59.94-9.68-96.93,10.61-112,71.15C1117.31,804.23,1105,823,1093.89,847Zm-49.31-151.28c-13.81-11.37-20.46-20.95-28-21.73-5.79-.6-17,9.33-17.91,15.67-.85,6.13,7.67,18.38,13.54,19.38C1019.58,710.27,1028.47,702.85,1044.58,695.68Zm34.15-334.79c-8.46,12-18.11,19.87-17,25.51,1.57,7.62,11.44,13.53,17.75,20.17,6-6.86,15.53-13.16,16.73-20.77C1097.16,380,1087.42,372.56,1078.73,360.89Zm276.88,331.62c-12.85-9.31-20.1-18.58-27.37-18.6-6.25,0-12.54,10.5-18.82,16.36,6.32,6.65,11.7,16.65,19.29,18.79C1334,710.55,1342.28,701.18,1355.61,692.51ZM795.81,206.67c-10,12.12-20.13,19.24-19.33,24.79,1.06,7.4,9.71,17.23,16.87,19,4.91,1.24,17.68-9,18.16-14.81C812.11,228.36,803.74,220.31,795.81,206.67ZM1257.53,520.3c11.67,9.36,18.35,18.72,23.65,18,6.87-.95,18.42-11,17.63-15.21-1.48-7.86-9.25-16.64-16.72-20.3C1278.81,501.17,1269.84,511.18,1257.53,520.3Zm27,372.67c7.53-14.89,15.32-23.28,14.33-30.46-.87-6.34-11.54-11.32-17.88-16.91-5.85,7.08-15.15,13.63-16.36,21.43C1263.79,872.54,1273.89,879.76,1284.55,893Z"/><path class="cls-2" d="M772.15,1121.91h43.2v78c11.7.73,20.82,1.75,29.94,1.79,36.52.16,73-.45,109.54.16,17.07.29,30.6-2.18,43.76-16.12,19-20.14,54.13-16.46,72.54,3.85,18.18,20.06,16.75,54.25-3.07,73.2-20.19,19.31-50.79,17.59-73.11-1.07-9.51-8-23.34-14.27-35.52-14.85-39-1.86-78.24.18-117.32-1.06-20.69-.66-28,6.78-26.11,27.15,1.61,17.77-1,34.08,15.89,49.12,23,20.51,19,53.5-4,73.43a52,52,0,0,1-70.85-2.8c-20.94-21.41-19.61-52,.5-75,7.61-8.69,13.64-22,13.94-33.31C773,1230.72,772.15,1177,772.15,1121.91Zm49.62,233.17C808,1346.47,800,1337.65,792.33,1338c-6,.24-11.62,11.69-17.4,18.17,6.86,6,13.15,15.6,20.77,16.82C801.56,1373.9,809.1,1364.27,821.77,1355.08ZM1031,1251.93c9.91-12.87,20-20.49,18.84-25.76-1.63-7.75-11.23-13.83-17.43-20.61-6.25,5.84-16.95,11.26-17.55,17.64C1014.14,1230.25,1022.7,1238.19,1031,1251.93Z"/><path class="cls-2" d="M816.35,1014.74c0,26.11-.46,50,.18,73.87.36,13.44-3.42,24.19-18.11,20.52-6.77-1.7-14.52-12.28-15.91-19.91-2.6-14.28-1-29.34-1-44.08C781.68,1013.13,785,1010.51,816.35,1014.74Z"/><polygon class="cls-2" points="772.92 906.36 772.18 1139.24 815.35 1139.24 816.55 994.22 772.92 906.36"/></svg>